<svg id="Layer_1" data-name="Layer 1" xmlns="http://www.w3.org/2000/svg" viewBox="0 0 1205 1156"><defs><style>.cls-1{fill:#092124;}.cls-2{fill:#64ffda;}</style></defs><rect class="cls-1" width="1205" height="1156" rx="304.14"/><path class="cls-2" d="M1102.63,406.5h-134a29.32,29.32,0,0,0-24,12.48L816.54,601.73,689.11,419.9a31.45,31.45,0,0,0-25.75-13.4H535a11.57,11.57,0,0,0-9.63,5,20.91,20.91,0,0,0-7.37,16h0a21,21,0,0,0,21,21h46.64a21,21,0,0,1,21,21h0a21,21,0,0,1-21,21H409a21,21,0,1,0,0,41.93H631a21,21,0,0,1,21,21h0a21,21,0,0,1-21,21H592a21,21,0,0,0-21,21h0a21,21,0,0,0,21,21H684a21,21,0,0,1,21,21h0a21,21,0,0,1-14.58,20c-.65.21-1.31.38-2,.53a21.35,21.35,0,0,1-4.41.47H659.55A21,21,0,0,0,666,699H748a21,21,0,0,1,21,21h0a21,21,0,0,1-19,20.87c-.65.06-1.3.1-2,.1H645a21,21,0,0,0-21,21h0a21,21,0,0,0,21,21h102.6l.43,0a21,21,0,0,1,20.53,21h0A21,21,0,0,1,748,824.81l-.43,0h-5.22A21,21,0,0,0,725,845.47v.33a21,21,0,0,0,21,21h8.6a21,21,0,0,1,21,21h0a21,21,0,0,1-21,21H549a21,21,0,0,0-21,21h0a21,21,0,0,0,21,21h205.6a21,21,0,0,1,0,41.94H698a21,21,0,1,0,0,41.93h50v.07h18.57a21,21,0,0,1,0,41.93H734c-5.45,0-10,7.31-11,17H868a17,17,0,0,0,17-17V742.78l2-2.86,223.33-318.67A9.37,9.37,0,0,0,1102.63,406.5Z" transform="translate(-154 -166)"/><path class="cls-2" d="M606,700a21,21,0,1,0,0-41.93H551A21,21,0,1,0,551,700Z" transform="translate(-154 -166)"/><path class="cls-2" d="M688.4,866.77a21,21,0,0,0,14.58-20v-.33a21,21,0,0,0-21-21H649a21,21,0,0,0-21,21v.33a21,21,0,0,0,14.57,20Z" transform="translate(-154 -166)"/><rect class="cls-2" x="283.98" y="658.5" width="171" height="43.27" rx="20.97"/></svg>